<?xml version="1.0" encoding="UTF-8" standalone="no"?>
<!DOCTYPE svg PUBLIC "-//W3C//DTD SVG 1.1//EN" "http://www.w3.org/Graphics/SVG/1.1/DTD/svg11.dtd">
<svg width="100%" height="100%" viewBox="0 0 512 512" version="1.1" xmlns="http://www.w3.org/2000/svg" xmlns:xlink="http://www.w3.org/1999/xlink" xml:space="preserve" xmlns:serif="http://www.serif.com/" style="fill-rule:evenodd;clip-rule:evenodd;stroke-linejoin:round;stroke-miterlimit:2;">
    <g transform="matrix(0,19.63416,-19.69155,0,503.16834,0)">
        <path d="M7.427,14.345C6.802,14.345 6.294,14.85 6.294,15.475L6.294,15.905C6.294,16.529 6.802,17.035 7.427,17.035L8.368,17.035C8.994,17.035 8.228,16.529 8.228,15.905L8.228,15.475C8.228,14.851 8.994,14.345 8.368,14.345M7.859,8.069L7.427,8.069C6.802,8.069 6.294,8.575 6.294,9.199L6.294,9.629C6.294,10.253 6.802,10.759 7.427,10.759L7.859,10.759C8.485,10.759 8.992,10.253 8.992,9.629L8.992,9.199C8.992,8.575 8.485,8.069 7.859,8.069" style="fill:rgb(79,102,51);fill-rule:nonzero;"/>
    </g>
    <g transform="matrix(0,19.63416,-19.69155,0,512,0)">
        <path d="M19.673,2.788C19.551,2.788 19.435,2.733 19.357,2.638C19.28,2.544 19.249,2.419 19.274,2.3C19.417,1.603 19.664,0.406 19.664,0.406C19.736,0.166 19.958,0.001 20.208,0L20.95,0C23.782,0 26.077,2.288 26.077,5.111L26.077,20.89C26.077,23.713 23.782,26.001 20.951,26.001C20.951,26.001 12.553,26.001 12.553,26.001C12.398,26.001 12.271,25.874 12.271,25.719C12.271,25.693 12.275,25.666 12.282,25.641L12.869,23.617C12.922,23.436 13.089,23.311 13.277,23.311L20.989,23.311C22.299,23.312 23.378,22.237 23.381,20.927L23.381,5.073C23.378,4.018 22.678,3.084 21.666,2.786C21.666,2.786 20.401,2.787 19.673,2.788Z" style="fill:rgb(79,102,51);fill-rule:nonzero;"/>
    </g>
    <g transform="matrix(0,19.63416,-19.69155,0,511.350478,2.808432)">
        <path d="M10.789,23.967C10.837,23.813 10.808,23.646 10.712,23.516C10.616,23.386 10.464,23.31 10.303,23.31C8.75,23.31 5.09,23.31 5.09,23.31C3.78,23.311 2.701,22.236 2.698,20.926L2.698,5.073C2.702,3.764 3.781,2.689 5.09,2.69L16.885,2.69C17.073,2.69 17.241,2.565 17.293,2.384L17.879,0.36C17.886,0.335 17.89,0.309 17.89,0.283C17.89,0.128 17.763,-0.159 17.608,-0.16L5.126,0C2.295,0 0,2.288 0,5.111L0,20.89C0,23.712 2.295,26 5.126,26L9.966,26C10.136,26.001 10.544,24.763 10.789,23.967Z" style="fill:rgb(79,102,51);fill-rule:nonzero;"/>
    </g>
    <g transform="matrix(0,-1.124108,1.341985,0,-189.454655,576.39097)">
        <path d="M288.801,242.196C292.181,241.72 295.587,242.913 297.556,245.263C299.525,247.613 299.706,250.701 298.023,253.202C284.12,274.003 273.96,302.007 273.96,331.937C273.96,361.868 284.12,389.871 298.005,410.681C299.685,413.176 299.504,416.257 297.54,418.602C295.575,420.946 292.177,422.137 288.805,421.662C236.531,414.437 197.787,376.988 197.787,331.937C197.787,286.886 236.531,249.437 288.801,242.196Z" style="fill:rgb(79,102,51);"/>
    </g>
</svg>
